<svg xmlns="http://www.w3.org/2000/svg" width="100%"><defs><linearGradient id="a" x1="0" x2="0" y1="0" y2="100%" gradientTransform="rotate(240)" gradientUnits="userSpaceOnUse"><stop offset="0" stop-color="#fff"/><stop offset="1" stop-color="#fff"/></linearGradient><pattern id="b" width="540" height="450" x="0" y="0" patternUnits="userSpaceOnUse" viewBox="0 0 1080 900"><g fill-opacity=".1"><path d="M90 150 0 300h180z" fill="#444"/><path d="M90 150 180 0H0z"/><path d="M270 150 360 0H180z" fill="#AAA"/><path d="m450 150-90 150h180z" fill="#DDD"/><path d="M450 150 540 0H360z" fill="#999"/><path d="m630 150-90 150h180z"/><path d="M630 150 720 0H540z" fill="#DDD"/><path d="m810 150-90 150h180z" fill="#444"/><path d="M810 150 900 0H720z" fill="#FFF"/><path d="m990 150-90 150h180z" fill="#DDD"/><path d="m990 150 90-150H900z" fill="#444"/><path d="M90 450 0 600h180z" fill="#DDD"/><path d="m90 450 90-150H0z"/><path d="m270 450-90 150h180z" fill="#666"/><path d="m270 450 90-150H180z" fill="#AAA"/><path d="m450 450-90 150h180z" fill="#DDD"/><path d="m450 450 90-150H360zm180 0-90 150h180z" fill="#999"/><path d="m630 450 90-150H540z" fill="#FFF"/><path d="m810 450-90 150h180z"/><path d="m810 450 90-150H720z" fill="#DDD"/><path d="m990 450-90 150h180z" fill="#AAA"/><path d="m990 450 90-150H900z" fill="#444"/><path d="M90 750 0 900h180z" fill="#222"/><path d="m270 750-90 150h180z"/><path d="m270 750 90-150H180z" fill="#DDD"/><path d="m450 750 90-150H360zm180 0-90 150h180z"/><path d="m630 750 90-150H540z" fill="#444"/><path d="m810 750-90 150h180z" fill="#AAA"/><path d="m810 750 90-150H720z" fill="#666"/><path d="m990 750-90 150h180zM180 0 90 150h180z" fill="#999"/><path d="m360 0-90 150h180z" fill="#444"/><path d="m540 0-90 150h180z" fill="#FFF"/><path d="m900 0-90 150h180z"/><path d="m0 300-90 150H90z" fill="#222"/><path d="m0 300 90-150H-90zm180 0L90 450h180z" fill="#FFF"/><path d="m180 300 90-150H90z" fill="#666"/><path d="m360 300-90 150h180z" fill="#222"/><path d="m360 300 90-150H270z" fill="#FFF"/><path d="m540 300-90 150h180z" fill="#444"/><path d="m540 300 90-150H450z" fill="#222"/><path d="m720 300-90 150h180z" fill="#AAA"/><path d="m720 300 90-150H630z" fill="#666"/><path d="m900 300-90 150h180z" fill="#FFF"/><path d="m900 300 90-150H810z" fill="#999"/><path d="m0 600-90 150H90z"/><path d="m0 600 90-150H-90z" fill="#666"/><path d="M180 600 90 750h180z" fill="#AAA"/><path d="m180 600 90-150H90zm180 0-90 150h180z" fill="#444"/><path d="m360 600 90-150H270z" fill="#999"/><path d="m540 600 90-150H450z" fill="#666"/><path d="m720 600-90 150h180z" fill="#222"/><path d="m900 600-90 150h180z" fill="#FFF"/><path d="m900 600 90-150H810z" fill="#222"/><path d="m0 900 90-150H-90z" fill="#DDD"/><path d="m180 900 90-150H90z" fill="#444"/><path d="m360 900 90-150H270z" fill="#FFF"/><path d="m540 900 90-150H450z" fill="#AAA"/><path d="m720 900 90-150H630z" fill="#FFF"/><path d="m900 900 90-150H810zm180-600-90 150h180z" fill="#222"/><path d="m1080 300 90-150H990z" fill="#FFF"/><path d="m1080 600-90 150h180z"/><path d="m1080 600 90-150H990z" fill="#666"/><path d="m1080 900 90-150H990z" fill="#DDD"/></g></pattern></defs><rect fill="url(#a)" width="100%" height="100%" x="0" y="0"/><rect fill="url(#b)" width="100%" height="100%" x="0" y="0"/></svg>